# xmcd CD database file
#
# Track frame offsets:
#	150
#	20372
#	42581
#	66785
#	87706
#	113778
#	130469
#	151644
#	176376
#	201074
#	220890
#	245214
#
# Disc length: 3537 seconds
#
# Revision: 0
# Processed by: cddbd v1.5.2PL0 Copyright (c) Steve Scherf et al.
# Submitted via: CDex 1.51
#
DISCID=aa0dcf0c
DTITLE=Raya Yarbrough - Raya Yarbrough
DYEAR=2007
DGENRE=Jazz
TTITLE0=Lord Knows I Would
TTITLE1=You're So Bad For Me
TTITLE2=Joy Spring
TTITLE3=Dreamer's Ball
TTITLE4=Sorrow's Eyes
TTITLE5=Mood Indigo
TTITLE6=Early Autumn
TTITLE7=Listen Emily
TTITLE8=Hollywood Love
TTITLE9=Round We Go
TTITLE10=Vice and Vanity
TTITLE11=Better Days
EXTD=YEAR: 2007
EXTT0=
EXTT1=
EXTT2=
EXTT3=
EXTT4=
EXTT5=
EXTT6=
EXTT7=
EXTT8=
EXTT9=
EXTT10=
EXTT11=
PLAYORDER=
